:SAMPLES-PER-SECOND 30
:FULLY-SPECIFIED
:DEGREES
122
root  34.87066734 36.57388161 -14.27881887 10.32611084 -1.359765053 4.13966608
lowerback  -8.805029869 0.8349419236 0.4923377037
upperback  -3.952470064 1.648849964 -4.391139984
thorax  0.9779400229 1.003229976 -4.673039913
lowerneck  -11.46640015 -8.724280357 -5.109250069
upperneck  11.29399967 -12.34869957 8.153420448
head  6.130029678 -5.768327713 2.246168137
lclavicle  0 -4.497500157e-015 -2.743230041e-014
lhumerus  -47.95449829 30.72639847 61.74209976
lradius  -0.09599097073 -6.507048965e-006 28.71779823
lwrist  3.192251654e-007 -3.790274832e-007 -30.47789955
lhand  -0 -36.84529877 -10.55770016
lfingers  90 7.125020027 -90
lthumb  94.76564136 -25.3976495 100.9998888
rclavicle  0 -4.497500157e-015 -2.743230041e-014
rhumerus  49.64289856 -22.60480118 -47.75529861
rradius  -5.16745672e-007 2.214343908e-008 52.84569931
rwrist  0.0006954420824 -0.004670973402 -167.128006
rhand  -1.771433873e-031 4.666210175 -5.528580189
rfingers  -90 -7.125020027 -90
rthumb  -83.97920484 -10.27595217 -59.4066407
rfemur  -12.02923775 14.36112404 12.43173409
rtibia  -0.8804038763 -0.9644901156 19.40540504
rfoot  0.4854094386 -20.78946304 -37.48290253
rtoes  4.088435913 19.59443019 -102.0318813
lfemur  -5.543525696 -17.09412003 -22.31702423
ltibia  6.287181854 0.2765819728 8.580105782
lfoot  0.6618208289 -23.25056458 34.82128906
ltoes  -8.502608511 -18.17000487 -115.6134511
123
root  34.87342474 36.57512515 -14.27810699 10.3566103 -1.296542287 4.142148018
lowerback  -8.724869728 0.9123149514 0.5906847715
upperback  -3.974829912 1.749799967 -4.482170105
thorax  0.924127996 1.05400002 -4.816649914
lowerneck  -11.39480019 -8.8020401 -5.131360054
upperneck  11.26350021 -12.46520042 8.220760345
head  6.131586552 -5.825845242 2.258476496
lclavicle  0 -4.497500157e-015 -2.743230041e-014
lhumerus  -47.81919861 30.43460274 61.8791008
lradius  -0.09770983458 -6.507048965e-006 28.71800041
lwrist  3.192251654e-007 -3.790274832e-007 -30.28560066
lhand  -0 -36.83779907 -10.6086998
lfingers  90 7.125020027 -90
lthumb  94.77290516 -25.4479213 100.9965
rclavicle  0 -4.497500157e-015 -2.743230041e-014
rhumerus  50.07640076 -22.79109955 -47.91960144
rradius  -5.16745672e-007 2.214343908e-008 52.04970169
rwrist  0.0006954420824 -0.004670973402 -166.5449982
rhand  -1.771636887e-031 4.745969772 -5.534170151
rfingers  -90 -7.125020027 -90
rthumb  -83.96118872 -10.27509742 -59.32896236
rfemur  -12.04478264 14.33063316 12.43272781
rtibia  -0.884558022 -0.9654982686 19.39680481
rfoot  0.481236279 -20.77390862 -37.514534
rtoes  4.083322932 19.59545618 -102.0166354
lfemur  -5.738281727 -17.12511253 -22.23526192
ltibia  6.171250343 0.2850066423 8.82276535
lfoot  0.6664790511 -23.3567028 34.74856567
ltoes  -8.512215241 -18.16562591 -115.6442615
124
root  34.87413962 36.57496295 -14.27742515 10.34970856 -1.224675536 4.161216736
lowerback  -8.742891312 0.9121489525 0.5438623428
upperback  -3.972599983 1.752560019 -4.457590103
thorax  0.9348139763 1.055850029 -4.763420105
lowerneck  -11.39210033 -8.839090347 -5.192699909
upperneck  11.26200008 -12.50539875 8.231399536
head  6.132090092 -5.846189976 2.268369913
lclavicle  0 -4.497500157e-015 -2.743230041e-014
lhumerus  -47.83349991 30.5333004 61.86709976
lradius  -0.09940377623 -6.507048965e-006 28.7113018
lwrist  3.192251654e-007 -3.790274832e-007 -30.34860039
lhand  -4.41623136e-031 -36.91009903 -10.67959976
lfingers  90 7.125020027 -90
lthumb  94.82177915 -25.51501397 101.0802528
rclavicle  0 -4.497500157e-015 -2.743230041e-014
rhumerus  50.74399567 -22.79739761 -48.0082016
rradius  -5.16745672e-007 2.214343908e-008 51.15459824
rwrist  0.0006954420824 -0.004670973402 -166.2030029
rhand  -1.771502993e-031 4.693520069 -5.419750214
rfingers  -90 -7.125020027 -90
rthumb  -83.91567908 -10.37096669 -59.36972204
rfemur  -12.03663826 14.29187393 12.43563938
rtibia  -0.8966495991 -0.9379380941 19.43005371
rfoot  0.4342649579 -20.72352982 -37.61982346
rtoes  4.07987854 19.59614658 -102.0063654
lfemur  -5.640181541 -17.15311241 -22.2878418
ltibia  6.24600935 0.2805504799 8.673092842
lfoot  0.6504722834 -23.29110718 34.70839691
ltoes  -8.515622349 -18.16407139 -115.6551904
125
root  34.87497465 36.57524529 -14.27688298 10.35266781 -1.166650414 4.174146175
lowerback  -8.731269836 0.9355769157 0.5432844162
upperback  -3.973816395 1.783390045 -4.450799942
thorax  0.9230980277 1.071179986 -4.753220081
lowerneck  -11.36390018 -8.878419876 -5.262859821
upperneck  11.24979973 -12.54450035 8.230979919
head  6.130459785 -5.868020058 2.276119947
lclavicle  0 -4.497500157e-015 -2.743230041e-014
lhumerus  -47.82780075 30.5163002 61.93009949
lradius  -0.1010708362 -6.507048965e-006 28.7071991
lwrist  3.192251654e-007 -3.790274832e-007 -30.31049919
lhand  -4.413698376e-031 -36.86629868 -10.68089962
lfingers  90 7.125020027 -90
lthumb  94.80151546 -25.51787425 101.0334935
rclavicle  0 -4.497500157e-015 -2.743230041e-014
rhumerus  51.11199951 -22.81389999 -47.93970108
rradius  -5.16745672e-007 2.214343908e-008 50.60589981
rwrist  0.0006954420824 -0.004670973402 -165.7610016
rhand  -1.771358111e-031 4.636089802 -5.488780022
rfingers  -90 -7.125020027 -90
rthumb  -83.96649753 -10.30875273 -59.43245224
rfemur  -12.03639126 14.27389812 12.43342495
rtibia  -0.9041797519 -0.9500011206 19.45151901
rfoot  0.4385010302 -20.74994659 -37.58713531
rtoes  4.079629967 19.59619638 -102.0056242
lfemur  -5.555288792 -17.20880127 -22.33325195
ltibia  6.312578201 0.2693813741 8.539237022
lfoot  0.6453345418 -23.2130146 34.72219849
ltoes  -8.559300695 -18.14407424 -115.7953768
